<?xml version="1.0" encoding="utf-8"?>
<!-- Generator: Adobe Illustrator 26.0.2, SVG Export Plug-In . SVG Version: 6.00 Build 0)  -->
<svg version="1.1" id="Layer_1" xmlns:serif="http://www.serif.com/"
	 xmlns="http://www.w3.org/2000/svg" xmlns:xlink="http://www.w3.org/1999/xlink" x="0px" y="0px" viewBox="0 0 1920 1080"
	 style="enable-background:new 0 0 1920 1080;" xml:space="preserve">
<style type="text/css">
	
		.st0{fill-rule:evenodd;clip-rule:evenodd;fill:#B84BFF;stroke:#0096FF;stroke-width:0.98;stroke-linecap:round;stroke-linejoin:round;stroke-miterlimit:1.5;}
	.st1{fill-rule:evenodd;clip-rule:evenodd;fill:url(#SVGID_1_);}
	.st2{fill-rule:evenodd;clip-rule:evenodd;fill:url(#SVGID_00000067232358724170245130000009059797353080421530_);}
	.st3{fill-rule:evenodd;clip-rule:evenodd;fill:url(#SVGID_00000126285659999418530420000007818574285353869729_);}
	.st4{fill-rule:evenodd;clip-rule:evenodd;fill:url(#SVGID_00000004505952298660745320000006731219964025192580_);}
	.st5{fill:none;stroke:#FFFFFF;stroke-width:8.757;stroke-linecap:round;stroke-linejoin:round;stroke-miterlimit:1.35;}
	.st6{fill:none;stroke:#FFFFFF;stroke-width:15.71;stroke-linecap:round;stroke-linejoin:round;stroke-miterlimit:1.5;}
	.st7{fill:none;stroke:#FFFFFF;stroke-width:11.75;stroke-linecap:round;stroke-linejoin:round;stroke-miterlimit:1.5;}
</style>
<g>
	<g transform="matrix(1.03893,0,0,1,0.914493,0)">
		<rect x="-22.8" y="-27.8" class="st0" width="1906.7" height="1176.3"/>
	</g>
	<g transform="matrix(1.21352,0,0,1,-320.09,-31.3214)">
		
			<linearGradient id="SVGID_1_" gradientUnits="userSpaceOnUse" x1="263.7762" y1="1111.3015" x2="264.8734" y2="1111.3015" gradientTransform="matrix(811.0505 0 0 -480.2814 -212723.5625 533879.5)">
			<stop  offset="0" style="stop-color:#FF91D0;stop-opacity:0.25"/>
			<stop  offset="1" style="stop-color:#7900FF;stop-opacity:0.25"/>
		</linearGradient>
		<path class="st1" d="M1240.9-64.8c0,0-164.3,418.5,293.8,454.9c238.3-3.8,380.6-191.1,407.9-327.5
			C1998.4-216.4,1240.9-64.8,1240.9-64.8z"/>
	</g>
	<g transform="matrix(1,0,0,1,-3.75856,60.137)">
		
			<linearGradient id="SVGID_00000109006551727252980960000000707597731380055965_" gradientUnits="userSpaceOnUse" x1="3.6573" y1="1019.8241" x2="4.7545" y2="1019.8241" gradientTransform="matrix(1152.72 0 0 -820.2672 -4449.584 837282)">
			<stop  offset="0" style="stop-color:#FF91D0;stop-opacity:0.25"/>
			<stop  offset="1" style="stop-color:#7900FF;stop-opacity:0.25"/>
		</linearGradient>
		<path style="fill-rule:evenodd;clip-rule:evenodd;fill:url(#SVGID_00000109006551727252980960000000707597731380055965_);" d="
			M-18.1,350.9c0,0,358.8-117.9,485.6,208.2c0,0,74.2,276.6,262.9,279.5c0,0,364.9-43.2,290.7,286.8l-1059.3,52l-195.5-422.5
			L-18.1,350.9z"/>
	</g>
	<g transform="matrix(0.835476,0,0,0.81491,415.205,305.006)">
		
			<linearGradient id="SVGID_00000041294180861704332100000009933556210060274366_" gradientUnits="userSpaceOnUse" x1="-496.9833" y1="950.894" x2="-495.8861" y2="950.894" gradientTransform="matrix(286.2967 0 0 -279.2493 143032 266017.25)">
			<stop  offset="0" style="stop-color:#FF91D0;stop-opacity:0.25"/>
			<stop  offset="1" style="stop-color:#7900FF;stop-opacity:0.25"/>
		</linearGradient>
		
			<ellipse style="fill-rule:evenodd;clip-rule:evenodd;fill:url(#SVGID_00000041294180861704332100000009933556210060274366_);" cx="935.3" cy="480.8" rx="157.1" ry="144.2"/>
	</g>
	
		<linearGradient id="SVGID_00000088094281484733847510000002520085730289438126_" gradientUnits="userSpaceOnUse" x1="-0.1094" y1="1080.0762" x2="0.9877" y2="1080.0762" gradientTransform="matrix(961.434 0 0 -530.8326 -2.4681 573374.25)">
		<stop  offset="0" style="stop-color:#FF91D0;stop-opacity:0.33"/>
		<stop  offset="1" style="stop-color:#7900FF;stop-opacity:0.33"/>
	</linearGradient>
	<path style="fill-rule:evenodd;clip-rule:evenodd;fill:url(#SVGID_00000088094281484733847510000002520085730289438126_);" d="
		M-40,259.6c0,0,429.1-91,678.5-83.7c0,0,332.5-19.9,307.3-247.5C920.7-299.1-59.3-129.8-59.3-129.8l-48.3,351.2L-40,259.6z"/>
	<g transform="matrix(1,0,0,1,53.2463,3.13214)">
		<path class="st5" d="M1498.1,94.4l78.9-27.7v77.2l103.6-24.7v71.3l57.2-27.7"/>
	</g>
	<g transform="matrix(0.604938,0,0,0.633803,77.4218,381.549)">
		<ellipse class="st6" cx="270.8" cy="871.4" rx="78.3" ry="64.6"/>
	</g>
	<g transform="matrix(0.721283,0.364164,-0.38202,0.75665,781.254,-286.842)">
		<path class="st7" d="M1489.3,754.4l-87,74.1l129.5,6L1489.3,754.4z"/>
	</g>
	<g transform="matrix(0.363614,-0.72156,0.756941,0.381443,-951.694,954.179)">
		<path class="st7" d="M1541.2,790l-76,81.1l113.7,33.2L1541.2,790z"/>
	</g>
	<path class="st5" d="M725.6,131c9.8-3.7,48.5-55.5,154.6-24.7"/>
	<path class="st5" d="M708.2,688.9l32.9,68.1"/>
	<g transform="matrix(1,0,0,1,113.54,-1.95759)">
		<path class="st5" d="M1398.4,310.2c0,0-91.2,39.3-32.5,110.6c0,0,69.6,62.6-105.2,77.2"/>
	</g>
	<g transform="matrix(1,0,0,1,25.4486,78.3034)">
		<path class="st5" d="M270.7,336.5c0,0,68,87.3,168.6,29.1"/>
	</g>
</g>
</svg>
